<svg width="234" height="179" viewBox="0 0 234 179" fill="none" xmlns="http://www.w3.org/2000/svg">
    <path d="M113.008 178.116L104.951 147.286H57.6855L49.6289 178.116H3.22266L53.8184 23.1064H110.967L161.562 178.116H113.008ZM80.8887 58.8779L65.957 115.167H96.6797L81.748 58.8779H80.8887Z"
          fill="url(#paint0_radial_590_12)"/>
    <path d="M185.001 79.3177C174.516 82.1938 165.422 81.3802 157.721 76.8768C150.011 72.3421 144.616 64.5226 141.537 53.4184C138.457 42.3142 139.062 32.8656 143.353 25.0728C147.643 17.28 155.031 11.9455 165.516 9.06937C171.45 7.44186 177.133 7.16563 182.565 8.2407C188.03 9.30715 192.748 11.6415 196.72 15.2439C200.692 18.8463 203.443 23.4078 204.974 28.9285L185.856 34.1727C184.567 30.3748 182.449 27.6138 179.505 25.8898C176.561 24.1658 173.347 23.7818 169.862 24.7376C165.75 25.8657 162.963 28.4865 161.503 32.6C160.075 36.7049 160.195 41.7687 161.866 47.7913C163.562 53.908 166.082 58.3644 169.425 61.1604C172.768 63.9565 176.527 64.7818 180.702 63.6365C184.155 62.6893 186.69 60.7451 188.306 57.8039C189.946 54.8227 190.378 51.3285 189.605 47.3214L208.723 42.0772C210.231 47.6379 210.225 52.973 208.703 58.0823C207.212 63.183 204.396 67.584 200.254 71.2855C196.144 74.9783 191.059 77.6558 185.001 79.3177Z"
          fill="url(#paint1_radial_590_12)"/>
    <defs>
        <radialGradient id="paint0_radial_590_12" cx="0" cy="0" r="1" gradientUnits="userSpaceOnUse"
                        gradientTransform="translate(96.2601 115.94) rotate(59.975) scale(175.737 1764.55)">
            <stop stop-color="#615EF3"/>
            <stop offset="1" stop-color="#F34C59"/>
        </radialGradient>
        <radialGradient id="paint1_radial_590_12" cx="0" cy="0" r="1" gradientUnits="userSpaceOnUse"
                        gradientTransform="translate(186.095 46.4226) rotate(-70.3449) scale(130.531 806.067)">
            <stop stop-color="#615EF3"/>
            <stop offset="1" stop-color="#F34C59"/>
        </radialGradient>
    </defs>
</svg>
