<svg width="49" height="49" viewBox="0 0 49 49" fill="none" xmlns="http://www.w3.org/2000/svg">
<path d="M46 5.17165L43.8283 3L3 43.8283L5.17165 46L8.24308 42.9286H39.8571C40.6714 42.9275 41.452 42.6035 42.0278 42.0278C42.6035 41.452 42.9275 40.6714 42.9286 39.8571V8.24308L46 5.17165ZM39.8571 39.8571H11.3145L23.2822 27.8893L26.9353 31.5423C27.5113 32.1183 28.2926 32.4419 29.1071 32.4419C29.9217 32.4419 30.7029 32.1183 31.2789 31.5423L33.7143 29.1071L39.8571 35.2459V39.8571ZM39.8571 30.9012L35.8861 26.93C35.3101 26.354 34.5289 26.0304 33.7143 26.0304C32.8997 26.0304 32.1185 26.354 31.5425 26.93L29.1071 29.3654L25.4567 25.7149L39.8571 11.3145V30.9012Z" fill="#818080"/>
<path d="M9.11111 34V29.3333L16.8889 21.5608L19.0251 23.6971L21.2276 21.4944L19.0888 19.3555C18.5053 18.7721 17.714 18.4443 16.8889 18.4443C16.0638 18.4443 15.2725 18.7721 14.689 19.3555L9.11111 24.9336V9.11111H34V6H9.11111C8.28625 6.00082 7.4954 6.32887 6.91213 6.91213C6.32887 7.4954 6.00082 8.28625 6 9.11111V34H9.11111Z" fill="#818080"/>
</svg>
