<svg width="47" height="49" viewBox="0 0 47 49" fill="none" xmlns="http://www.w3.org/2000/svg">
<path d="M45 29.51C44.0306 34.4274 41.3852 38.8573 37.514 42.0461C33.6428 45.2349 28.785 46.9854 23.7671 46.9999C18.7492 47.0144 13.8814 45.2918 9.99182 42.1254C6.10226 38.959 3.43133 34.5444 2.43349 29.6327C1.43566 24.7209 2.17259 19.6156 4.51887 15.1855C6.86516 10.7553 10.6758 7.27395 15.3025 5.33384C19.9292 3.39373 25.0859 3.11471 29.8954 4.54425C34.7048 5.9738 38.8697 9.02359 41.6814 13.1747" stroke="#818080" stroke-width="4"/>
<path d="M43.2567 1L42.3775 13.6897L29.3108 12.826" stroke="#818080" stroke-width="4"/>
<path d="M45 29.51C44.0306 34.4274 41.3852 38.8573 37.514 42.0461C33.6428 45.2349 28.785 46.9854 23.7671 46.9999C18.7492 47.0144 13.8814 45.2918 9.99182 42.1254C6.10226 38.959 3.43133 34.5444 2.43349 29.6327C1.43566 24.7209 2.17259 19.6156 4.51887 15.1855C6.86516 10.7553 10.6758 7.27395 15.3025 5.33384C19.9292 3.39373 25.0859 3.11471 29.8954 4.54425C34.7048 5.9738 38.8697 9.02359 41.6814 13.1747" stroke="#818080" stroke-width="4"/>
<path d="M43.2567 1L42.3775 13.6897L29.3108 12.826" stroke="#818080" stroke-width="4"/>
</svg>
