<svg width="216" height="222" viewBox="0 0 216 222" fill="none" xmlns="http://www.w3.org/2000/svg">
<g filter="url(#filter0_f_731_72)">
<path d="M116.404 90.2063C125.914 94.6431 130.3 105.917 126.284 115.568C124.811 119.101 122.428 121.968 119.517 124.027C119.106 124.315 118.855 124.776 118.816 125.273L118.348 131.02C118.185 132.999 115.77 133.874 114.366 132.463L110.068 128.136C109.735 127.799 109.279 127.609 108.811 127.625C106.029 127.722 103.182 127.234 100.453 126.077C90.6669 121.943 85.8739 110.631 89.7506 100.785C93.8996 90.2384 106.094 85.3947 116.411 90.2037L116.404 90.2063Z" fill="url(#paint0_linear_731_72)"/>
</g>
<path d="M116.404 90.2063C125.914 94.6431 130.3 105.917 126.284 115.568C124.811 119.101 122.428 121.968 119.517 124.027C119.106 124.315 118.855 124.776 118.816 125.273L118.348 131.02C118.185 132.999 115.77 133.874 114.366 132.463L110.068 128.136C109.735 127.799 109.279 127.609 108.811 127.625C106.029 127.722 103.182 127.234 100.453 126.077C90.6669 121.943 85.8739 110.631 89.7506 100.785C93.8996 90.2384 106.094 85.3947 116.411 90.2037L116.404 90.2063Z" fill="url(#paint1_linear_731_72)"/>
<g filter="url(#filter1_b_731_72)">
<path d="M104.42 62.7091C91.7757 57.7738 77.2883 63.8022 71.8142 76.2558C69.8093 80.8155 69.2436 85.635 69.9126 90.2111C70.008 90.8563 69.7998 91.5064 69.3693 91.9967L64.3937 97.6111C62.6789 99.543 64.0108 102.595 66.591 102.641L74.4853 102.787C75.0938 102.799 75.6808 103.05 76.087 103.51C78.4761 106.205 81.4724 108.437 84.993 109.96C97.6011 115.419 112.486 109.745 118.271 97.2456C124.467 83.8598 118.139 68.0617 104.424 62.7111L104.42 62.7091Z" fill="url(#paint2_linear_731_72)"/>
<path d="M72.7296 76.6583L72.7296 76.6582C77.9872 64.6973 91.9029 58.9061 104.041 63.6349L104.046 63.6368L104.061 63.6427C117.236 68.7827 123.318 83.9603 117.363 96.8255L117.363 96.8256C111.806 108.833 97.4999 114.286 85.3904 109.042L85.39 109.042C82.0081 107.579 79.1308 105.436 76.8359 102.848C76.2305 102.163 75.3713 101.805 74.5053 101.787L74.5038 101.787L66.6095 101.642L66.609 101.642C64.8881 101.611 63.9901 99.5722 65.1416 98.2749L65.1421 98.2743L70.1177 92.66L70.1207 92.6565C70.7325 91.9598 71.0425 91.0194 70.9021 90.0665C70.2595 85.6707 70.8024 81.0413 72.7296 76.6583Z" stroke="url(#paint3_linear_731_72)" stroke-width="2"/>
</g>
<defs>
<filter id="filter0_f_731_72" x="0.40625" y="0.340332" width="215.365" height="220.815" filterUnits="userSpaceOnUse" color-interpolation-filters="sRGB">
<feFlood flood-opacity="0" result="BackgroundImageFix"/>
<feBlend mode="normal" in="SourceGraphic" in2="BackgroundImageFix" result="shape"/>
<feGaussianBlur stdDeviation="44" result="effect1_foregroundBlur_731_72"/>
</filter>
<filter id="filter1_b_731_72" x="45.623" y="42.9873" width="93.0312" height="87.0488" filterUnits="userSpaceOnUse" color-interpolation-filters="sRGB">
<feFlood flood-opacity="0" result="BackgroundImageFix"/>
<feGaussianBlur in="BackgroundImageFix" stdDeviation="9"/>
<feComposite in2="SourceAlpha" operator="in" result="effect1_backgroundBlur_731_72"/>
<feBlend mode="normal" in="SourceGraphic" in2="effect1_backgroundBlur_731_72" result="shape"/>
</filter>
<linearGradient id="paint0_linear_731_72" x1="111.467" y1="89.5427" x2="104.177" y2="128.967" gradientUnits="userSpaceOnUse">
<stop stop-color="#0BC7FF"/>
<stop offset="1" stop-color="#DB0EFE"/>
</linearGradient>
<linearGradient id="paint1_linear_731_72" x1="111.467" y1="89.5427" x2="104.177" y2="128.967" gradientUnits="userSpaceOnUse">
<stop stop-color="#0BC7FF"/>
<stop offset="1" stop-color="#DB0EFE"/>
</linearGradient>
<linearGradient id="paint2_linear_731_72" x1="65.1688" y1="99.0993" x2="125.228" y2="75.6145" gradientUnits="userSpaceOnUse">
<stop stop-color="white" stop-opacity="0.2"/>
<stop offset="1" stop-color="white" stop-opacity="0.49"/>
</linearGradient>
<linearGradient id="paint3_linear_731_72" x1="83.4684" y1="58.1639" x2="105.402" y2="117.159" gradientUnits="userSpaceOnUse">
<stop stop-color="white"/>
<stop offset="1" stop-color="white" stop-opacity="0"/>
</linearGradient>
</defs>
</svg>
