<svg width="192" height="201" viewBox="0 0 192 201" fill="none" xmlns="http://www.w3.org/2000/svg">
<g filter="url(#filter0_f_731_135)">
<path d="M110.907 112.315C118.595 115.572 127.468 111.979 130.724 104.29C133.98 96.6014 130.387 87.7288 122.699 84.4725C115.01 81.2162 106.138 84.8092 102.881 92.4978C99.6249 100.186 103.218 109.059 110.907 112.315Z" fill="url(#paint0_linear_731_135)"/>
<path d="M73.3304 96.4008C81.019 99.6571 89.8916 96.064 93.1479 88.3754C96.4042 80.6868 92.8111 71.8143 85.1226 68.5579C77.434 65.3016 68.5614 68.8947 65.3051 76.5833C62.0488 84.2718 65.6418 93.1444 73.3304 96.4008Z" fill="url(#paint1_linear_731_135)"/>
</g>
<g filter="url(#filter1_f_731_135)">
<path d="M99.842 91.8238C100.329 90.6749 99.7917 89.3491 98.6428 88.8625C97.4939 88.3759 96.168 88.9128 95.6814 90.0617L89.0573 105.702C88.5708 106.851 89.1077 108.177 90.2566 108.663C91.4055 109.15 92.7313 108.613 93.2179 107.464L99.842 91.8238Z" fill="white"/>
<path d="M99.9213 112.763C101.07 113.25 102.396 112.713 102.883 111.564C103.369 110.415 102.832 109.089 101.683 108.603L92.0211 104.511C90.8722 104.024 89.5464 104.561 89.0598 105.71C88.5732 106.859 89.1101 108.185 90.259 108.671L99.9213 112.763Z" fill="white"/>
</g>
<path d="M110.907 112.315C118.595 115.572 127.468 111.979 130.724 104.29C133.98 96.6014 130.387 87.7288 122.699 84.4725C115.01 81.2162 106.138 84.8092 102.881 92.4978C99.6249 100.186 103.218 109.059 110.907 112.315Z" fill="url(#paint2_linear_731_135)"/>
<path d="M73.3304 96.4008C81.019 99.6571 89.8916 96.064 93.1479 88.3754C96.4042 80.6868 92.8111 71.8143 85.1226 68.5579C77.434 65.3016 68.5614 68.8947 65.3051 76.5833C62.0488 84.2718 65.6418 93.1444 73.3304 96.4008Z" fill="url(#paint3_linear_731_135)"/>
<g filter="url(#filter2_b_731_135)">
<path d="M101.912 131.31C108.229 128.652 113.559 123.627 116.444 116.817C122.316 102.95 115.837 86.9513 101.971 81.0784C88.1042 75.2055 72.1052 81.6845 66.2323 95.5512C63.3481 102.361 63.448 109.686 65.9343 116.072L61.1631 120.295C59.2733 121.967 59.0959 124.856 60.766 126.751C62.4384 128.641 65.3268 128.818 67.2221 127.148L70.7318 124.044C73.3757 127.101 76.7338 129.614 80.7027 131.295C84.6717 132.976 88.8135 133.639 92.8484 133.411L93.0612 138.092C93.175 140.613 95.3122 142.564 97.8386 142.452C100.36 142.338 102.311 140.201 102.199 137.675L101.912 131.31Z" fill="url(#paint4_linear_731_135)"/>
<path d="M100.882 130.659L101.524 130.388C107.611 127.827 112.744 122.987 115.523 116.427C121.18 103.069 114.939 87.6568 101.581 81.9993C88.2227 76.3417 72.8107 82.583 67.1532 95.9411C64.3747 102.501 64.4704 109.556 66.8662 115.71L67.1191 116.359L66.5971 116.821L61.8259 121.044L61.8258 121.044C60.3503 122.35 60.2101 124.606 61.5152 126.089C62.8211 127.564 65.0776 127.704 66.5599 126.399C66.5602 126.398 66.5606 126.398 66.5609 126.398L70.0694 123.295L70.8267 122.625L71.4882 123.39C74.0347 126.334 77.2686 128.755 81.0927 130.374C84.9169 131.994 88.9056 132.632 92.792 132.413L93.8015 132.356L93.8474 133.366L94.0602 138.046L94.0602 138.047C94.149 140.014 95.8171 141.54 97.7935 141.453L100.882 130.659ZM100.882 130.659L100.913 131.355M100.882 130.659L100.913 131.355M100.913 131.355L101.2 137.719M100.913 131.355L101.2 137.719M101.2 137.719L101.2 137.72C101.287 139.696 99.7616 141.364 97.7946 141.453L101.2 137.719Z" stroke="url(#paint5_linear_731_135)" stroke-width="2"/>
</g>
<path d="M99.842 91.8238C100.329 90.6749 99.7917 89.3491 98.6428 88.8625C97.4939 88.3759 96.168 88.9128 95.6814 90.0617L89.0573 105.702C88.5708 106.851 89.1077 108.177 90.2566 108.663C91.4055 109.15 92.7313 108.613 93.2179 107.464L99.842 91.8238Z" fill="white"/>
<path d="M99.9213 112.763C101.07 113.25 102.396 112.713 102.883 111.564C103.369 110.415 102.832 109.089 101.683 108.603L92.0211 104.511C90.8722 104.024 89.5464 104.561 89.0598 105.71C88.5732 106.859 89.1101 108.185 90.259 108.671L99.9213 112.763Z" fill="white"/>
<defs>
<filter id="filter0_f_731_135" x="26.1035" y="29.3569" width="143.822" height="122.159" filterUnits="userSpaceOnUse" color-interpolation-filters="sRGB">
<feFlood flood-opacity="0" result="BackgroundImageFix"/>
<feBlend mode="normal" in="SourceGraphic" in2="BackgroundImageFix" result="shape"/>
<feGaussianBlur stdDeviation="19" result="effect1_foregroundBlur_731_135"/>
</filter>
<filter id="filter1_f_731_135" x="0.876953" y="0.683105" width="190.186" height="200.26" filterUnits="userSpaceOnUse" color-interpolation-filters="sRGB">
<feFlood flood-opacity="0" result="BackgroundImageFix"/>
<feBlend mode="normal" in="SourceGraphic" in2="BackgroundImageFix" result="shape"/>
<feGaussianBlur stdDeviation="44" result="effect1_foregroundBlur_731_135"/>
</filter>
<filter id="filter2_b_731_135" x="41.6211" y="60.9121" width="94.9883" height="99.5447" filterUnits="userSpaceOnUse" color-interpolation-filters="sRGB">
<feFlood flood-opacity="0" result="BackgroundImageFix"/>
<feGaussianBlur in="BackgroundImageFix" stdDeviation="9"/>
<feComposite in2="SourceAlpha" operator="in" result="effect1_backgroundBlur_731_135"/>
<feBlend mode="normal" in="SourceGraphic" in2="effect1_backgroundBlur_731_135" result="shape"/>
</filter>
<linearGradient id="paint0_linear_731_135" x1="63.6167" y1="87.6124" x2="135.253" y2="102.134" gradientUnits="userSpaceOnUse">
<stop stop-color="#3B3BF9"/>
<stop offset="0.51" stop-color="#10E0F9"/>
<stop offset="1" stop-color="#92FFFF"/>
</linearGradient>
<linearGradient id="paint1_linear_731_135" x1="65.2346" y1="79.646" x2="136.871" y2="94.1677" gradientUnits="userSpaceOnUse">
<stop stop-color="#3B3BF9"/>
<stop offset="0.51" stop-color="#10E0F9"/>
<stop offset="1" stop-color="#92FFFF"/>
</linearGradient>
<linearGradient id="paint2_linear_731_135" x1="63.6167" y1="87.6124" x2="135.253" y2="102.134" gradientUnits="userSpaceOnUse">
<stop stop-color="#3B3BF9"/>
<stop offset="0.51" stop-color="#10E0F9"/>
<stop offset="1" stop-color="#92FFFF"/>
</linearGradient>
<linearGradient id="paint3_linear_731_135" x1="65.2346" y1="79.646" x2="136.871" y2="94.1677" gradientUnits="userSpaceOnUse">
<stop stop-color="#3B3BF9"/>
<stop offset="0.51" stop-color="#10E0F9"/>
<stop offset="1" stop-color="#92FFFF"/>
</linearGradient>
<linearGradient id="paint4_linear_731_135" x1="58.1465" y1="122.537" x2="124.686" y2="98.3207" gradientUnits="userSpaceOnUse">
<stop stop-color="white" stop-opacity="0.2"/>
<stop offset="1" stop-color="white" stop-opacity="0.49"/>
</linearGradient>
<linearGradient id="paint5_linear_731_135" x1="78.613" y1="76.1886" x2="104.749" y2="140.304" gradientUnits="userSpaceOnUse">
<stop stop-color="white"/>
<stop offset="1" stop-color="white" stop-opacity="0"/>
</linearGradient>
</defs>
</svg>
