<svg width="244" height="244" viewBox="0 0 244 244" fill="none" xmlns="http://www.w3.org/2000/svg">
<g filter="url(#filter0_f_731_682)">
<path d="M132.788 88.8465C134.879 90.1883 135.487 92.9702 134.145 95.0616L124.545 110.026L116.972 105.167L126.573 90.2035C127.915 88.1122 130.697 87.5048 132.788 88.8465Z" fill="url(#paint0_linear_731_682)"/>
<path d="M147.933 98.5623C150.024 99.9041 150.631 102.686 149.29 104.777L139.689 119.741L132.117 114.883L141.717 99.9194C143.059 97.828 145.841 97.2206 147.933 98.5623Z" fill="url(#paint1_linear_731_682)"/>
<path d="M89.2689 111.062C90.6106 108.97 93.3926 108.363 95.484 109.705L110.448 119.305L105.59 126.877L90.6259 117.277C88.5346 115.935 87.9271 113.153 89.2689 111.062Z" fill="url(#paint2_linear_731_682)"/>
<path d="M98.9837 95.9171C100.325 93.8257 103.107 93.2183 105.199 94.56L120.163 104.16L115.305 111.733L100.341 102.132C98.2494 100.79 97.642 98.0084 98.9837 95.9171Z" fill="url(#paint3_linear_731_682)"/>
<path d="M111.483 154.581C109.392 153.239 108.785 150.457 110.126 148.366L119.727 133.402L127.299 138.26L117.699 153.224C116.357 155.316 113.575 155.923 111.483 154.581Z" fill="url(#paint4_linear_731_682)"/>
<path d="M96.3389 144.865C94.2476 143.523 93.6402 140.741 94.9819 138.65L104.582 123.686L112.154 128.544L102.554 143.508C101.212 145.599 98.4303 146.207 96.3389 144.865Z" fill="url(#paint5_linear_731_682)"/>
<path d="M155.003 132.366C153.661 134.457 150.879 135.065 148.788 133.723L133.824 124.123L138.682 116.551L153.646 126.151C155.737 127.493 156.344 130.275 155.003 132.366Z" fill="url(#paint6_linear_731_682)"/>
<path d="M145.288 147.51C143.946 149.602 141.164 150.209 139.073 148.867L124.109 139.267L128.967 131.695L143.931 141.295C146.022 142.637 146.63 145.419 145.288 147.51Z" fill="url(#paint7_linear_731_682)"/>
</g>
<g filter="url(#filter1_f_731_682)">
<path d="M137.525 118.354L118.775 106.324L106.746 125.074L125.496 137.104L137.525 118.354Z" fill="white"/>
</g>
<path d="M128.821 86.3016C130.913 87.6433 131.52 90.4253 130.178 92.5167L120.578 107.481L113.006 102.623L122.606 87.6586C123.948 85.5673 126.73 84.9598 128.821 86.3016Z" fill="url(#paint8_linear_731_682)"/>
<path d="M143.966 96.0179C146.057 97.3596 146.665 100.142 145.323 102.233L135.722 117.197L128.15 112.339L137.751 97.3749C139.092 95.2836 141.874 94.6761 143.966 96.0179Z" fill="url(#paint9_linear_731_682)"/>
<path d="M85.3021 108.517C86.6438 106.425 89.4258 105.818 91.5172 107.16L106.481 116.76L101.623 124.332L86.6591 114.732C84.5678 113.39 83.9603 110.608 85.3021 108.517Z" fill="url(#paint10_linear_731_682)"/>
<path d="M95.0169 93.3726C96.3587 91.2813 99.1407 90.6738 101.232 92.0156L116.196 101.616L111.338 109.188L96.374 99.5877C94.2826 98.246 93.6752 95.464 95.0169 93.3726Z" fill="url(#paint11_linear_731_682)"/>
<path d="M107.517 152.037C105.425 150.695 104.818 147.913 106.16 145.822L115.76 130.858L123.332 135.716L113.732 150.68C112.39 152.771 109.608 153.379 107.517 152.037Z" fill="url(#paint12_linear_731_682)"/>
<path d="M92.3721 142.32C90.2808 140.979 89.6734 138.197 91.0151 136.105L100.616 121.141L108.188 125.999L98.5872 140.963C97.2455 143.055 94.4635 143.662 92.3721 142.32Z" fill="url(#paint13_linear_731_682)"/>
<path d="M151.036 129.822C149.694 131.913 146.912 132.52 144.821 131.179L129.857 121.578L134.715 114.006L149.679 123.607C151.77 124.948 152.378 127.73 151.036 129.822Z" fill="url(#paint14_linear_731_682)"/>
<path d="M141.319 144.966C139.977 147.057 137.195 147.665 135.104 146.323L120.14 136.722L124.998 129.15L139.962 138.751C142.053 140.092 142.661 142.874 141.319 144.966Z" fill="url(#paint15_linear_731_682)"/>
<g filter="url(#filter2_b_731_682)">
<path d="M143.358 108.863L117.036 91.9754C113.95 89.995 109.842 90.8919 107.862 93.9786L90.9741 120.301C88.9937 123.387 89.8906 127.495 92.9773 129.475L119.299 146.363C122.386 148.343 126.494 147.446 128.474 144.36L145.362 118.038C147.342 114.951 146.445 110.843 143.358 108.863Z" fill="url(#paint16_linear_731_682)"/>
<path d="M116.496 92.817L142.818 109.705C145.44 111.387 146.202 114.876 144.52 117.498L127.632 143.82C125.95 146.441 122.461 147.203 119.839 145.521L93.5173 128.634C90.8954 126.952 90.1336 123.463 91.8157 120.841L108.703 94.5186C110.385 91.8967 113.874 91.1349 116.496 92.817Z" stroke="url(#paint17_linear_731_682)" stroke-width="2"/>
</g>
<path d="M133.559 115.809L114.809 103.779L102.779 122.529L121.529 134.559L133.559 115.809Z" fill="white"/>
<defs>
<filter id="filter0_f_731_682" x="0.556641" y="0.133789" width="243.158" height="243.16" filterUnits="userSpaceOnUse" color-interpolation-filters="sRGB">
<feFlood flood-opacity="0" result="BackgroundImageFix"/>
<feBlend mode="normal" in="SourceGraphic" in2="BackgroundImageFix" result="shape"/>
<feGaussianBlur stdDeviation="44" result="effect1_foregroundBlur_731_682"/>
</filter>
<filter id="filter1_f_731_682" x="18.7461" y="18.3242" width="206.779" height="206.779" filterUnits="userSpaceOnUse" color-interpolation-filters="sRGB">
<feFlood flood-opacity="0" result="BackgroundImageFix"/>
<feBlend mode="normal" in="SourceGraphic" in2="BackgroundImageFix" result="shape"/>
<feGaussianBlur stdDeviation="44" result="effect1_foregroundBlur_731_682"/>
</filter>
<filter id="filter2_b_731_682" x="71.9219" y="72.9233" width="92.4922" height="92.4917" filterUnits="userSpaceOnUse" color-interpolation-filters="sRGB">
<feFlood flood-opacity="0" result="BackgroundImageFix"/>
<feGaussianBlur in="BackgroundImageFix" stdDeviation="9"/>
<feComposite in2="SourceAlpha" operator="in" result="effect1_backgroundBlur_731_682"/>
<feBlend mode="normal" in="SourceGraphic" in2="effect1_backgroundBlur_731_682" result="shape"/>
</filter>
<linearGradient id="paint0_linear_731_682" x1="120.558" y1="75.9455" x2="140.716" y2="161.339" gradientUnits="userSpaceOnUse">
<stop stop-color="#B14DFF"/>
<stop offset="0.99" stop-color="#652AC6"/>
</linearGradient>
<linearGradient id="paint1_linear_731_682" x1="132.985" y1="74.1403" x2="153.143" y2="159.534" gradientUnits="userSpaceOnUse">
<stop stop-color="#B14DFF"/>
<stop offset="0.99" stop-color="#652AC6"/>
</linearGradient>
<linearGradient id="paint2_linear_731_682" x1="91.731" y1="83.7405" x2="111.914" y2="169.247" gradientUnits="userSpaceOnUse">
<stop stop-color="#B14DFF"/>
<stop offset="0.99" stop-color="#652AC6"/>
</linearGradient>
<linearGradient id="paint3_linear_731_682" x1="104.077" y1="79.7513" x2="124.266" y2="165.256" gradientUnits="userSpaceOnUse">
<stop stop-color="#B14DFF"/>
<stop offset="0.99" stop-color="#652AC6"/>
</linearGradient>
<linearGradient id="paint4_linear_731_682" x1="103.499" y1="81.8591" x2="123.658" y2="167.253" gradientUnits="userSpaceOnUse">
<stop stop-color="#B14DFF"/>
<stop offset="0.99" stop-color="#652AC6"/>
</linearGradient>
<linearGradient id="paint5_linear_731_682" x1="91.0754" y1="83.6661" x2="111.234" y2="169.06" gradientUnits="userSpaceOnUse">
<stop stop-color="#B14DFF"/>
<stop offset="0.99" stop-color="#652AC6"/>
</linearGradient>
<linearGradient id="paint6_linear_731_682" x1="132.301" y1="73.9516" x2="152.488" y2="159.46" gradientUnits="userSpaceOnUse">
<stop stop-color="#B14DFF"/>
<stop offset="0.99" stop-color="#652AC6"/>
</linearGradient>
<linearGradient id="paint7_linear_731_682" x1="119.953" y1="77.9439" x2="140.138" y2="163.446" gradientUnits="userSpaceOnUse">
<stop stop-color="#B14DFF"/>
<stop offset="0.99" stop-color="#652AC6"/>
</linearGradient>
<linearGradient id="paint8_linear_731_682" x1="116.591" y1="73.4005" x2="136.749" y2="158.794" gradientUnits="userSpaceOnUse">
<stop stop-color="#B14DFF"/>
<stop offset="0.99" stop-color="#652AC6"/>
</linearGradient>
<linearGradient id="paint9_linear_731_682" x1="129.018" y1="71.5958" x2="149.177" y2="156.989" gradientUnits="userSpaceOnUse">
<stop stop-color="#B14DFF"/>
<stop offset="0.99" stop-color="#652AC6"/>
</linearGradient>
<linearGradient id="paint10_linear_731_682" x1="87.7642" y1="81.1956" x2="107.947" y2="166.702" gradientUnits="userSpaceOnUse">
<stop stop-color="#B14DFF"/>
<stop offset="0.99" stop-color="#652AC6"/>
</linearGradient>
<linearGradient id="paint11_linear_731_682" x1="100.11" y1="77.2068" x2="120.299" y2="162.712" gradientUnits="userSpaceOnUse">
<stop stop-color="#B14DFF"/>
<stop offset="0.99" stop-color="#652AC6"/>
</linearGradient>
<linearGradient id="paint12_linear_731_682" x1="99.5324" y1="79.3147" x2="119.691" y2="164.708" gradientUnits="userSpaceOnUse">
<stop stop-color="#B14DFF"/>
<stop offset="0.99" stop-color="#652AC6"/>
</linearGradient>
<linearGradient id="paint13_linear_731_682" x1="87.1086" y1="81.1217" x2="107.267" y2="166.515" gradientUnits="userSpaceOnUse">
<stop stop-color="#B14DFF"/>
<stop offset="0.99" stop-color="#652AC6"/>
</linearGradient>
<linearGradient id="paint14_linear_731_682" x1="128.334" y1="71.4072" x2="148.521" y2="156.916" gradientUnits="userSpaceOnUse">
<stop stop-color="#B14DFF"/>
<stop offset="0.99" stop-color="#652AC6"/>
</linearGradient>
<linearGradient id="paint15_linear_731_682" x1="115.984" y1="75.3995" x2="136.169" y2="160.902" gradientUnits="userSpaceOnUse">
<stop stop-color="#B14DFF"/>
<stop offset="0.99" stop-color="#652AC6"/>
</linearGradient>
<linearGradient id="paint16_linear_731_682" x1="90.8637" y1="125.131" x2="145.472" y2="113.207" gradientUnits="userSpaceOnUse">
<stop stop-color="white" stop-opacity="0.2"/>
<stop offset="1" stop-color="white" stop-opacity="0.49"/>
</linearGradient>
<linearGradient id="paint17_linear_731_682" x1="112.202" y1="93.0372" x2="122.045" y2="146.665" gradientUnits="userSpaceOnUse">
<stop stop-color="white"/>
<stop offset="1" stop-color="white" stop-opacity="0"/>
</linearGradient>
</defs>
</svg>
