<svg width="236" height="237" viewBox="0 0 236 237" fill="none" xmlns="http://www.w3.org/2000/svg">
<g filter="url(#filter0_f_731_46)">
<path d="M108.857 89.69L92.4824 98.3925C88.8103 100.344 87.4077 104.882 89.3483 108.534L108.661 144.873C110.601 148.525 115.148 149.902 118.82 147.95L143.735 134.709C147.407 132.757 148.81 128.219 146.869 124.567L132.07 96.7201C131.139 94.9677 129.543 93.6597 127.64 93.0799L114.586 89.1265C112.679 88.5488 110.62 88.7534 108.857 89.69Z" fill="url(#paint0_linear_731_46)"/>
</g>
<path d="M107.344 90.4942L90.9688 99.1967C87.2966 101.148 85.8941 105.687 87.8346 109.338L107.147 145.677C109.088 149.329 113.634 150.706 117.306 148.754L142.221 135.513C145.894 133.561 147.296 129.023 145.356 125.372L130.556 97.5243C129.625 95.7719 128.03 94.4639 126.126 93.8841L113.073 89.9307C111.165 89.353 109.106 89.5576 107.344 90.4942Z" fill="url(#paint1_linear_731_46)"/>
<g filter="url(#filter1_b_731_46)">
<path d="M121.899 119.124L120.205 115.936C119.037 113.737 116.294 112.906 114.084 114.08L91.2617 126.209C89.0516 127.384 88.2064 130.122 89.3752 132.321L104.413 160.617C105.931 163.474 109.488 164.552 112.359 163.027L156.818 139.399C159.689 137.873 160.785 134.322 159.267 131.465L148.671 111.528C147.153 108.671 143.597 107.593 140.726 109.119L121.899 119.124Z" fill="url(#paint2_linear_731_46)"/>
<path d="M121.016 119.593L121.486 120.476L122.369 120.007L141.195 110.002C143.582 108.733 146.531 109.632 147.788 111.997L158.384 131.934C159.641 134.299 158.736 137.247 156.349 138.516L111.889 162.144C109.502 163.412 106.553 162.513 105.296 160.148L90.2583 131.852C89.3508 130.144 90.0044 128.01 91.731 127.092L114.553 114.963C116.28 114.046 118.415 114.698 119.322 116.406L121.016 119.593Z" stroke="url(#paint3_linear_731_46)" stroke-width="2"/>
</g>
<defs>
<filter id="filter0_f_731_46" x="0.474609" y="0.804199" width="235.268" height="236.033" filterUnits="userSpaceOnUse" color-interpolation-filters="sRGB">
<feFlood flood-opacity="0" result="BackgroundImageFix"/>
<feBlend mode="normal" in="SourceGraphic" in2="BackgroundImageFix" result="shape"/>
<feGaussianBlur stdDeviation="44" result="effect1_foregroundBlur_731_46"/>
</filter>
<filter id="filter1_b_731_46" x="70.8496" y="90.4258" width="107.102" height="91.2935" filterUnits="userSpaceOnUse" color-interpolation-filters="sRGB">
<feFlood flood-opacity="0" result="BackgroundImageFix"/>
<feGaussianBlur in="BackgroundImageFix" stdDeviation="9"/>
<feComposite in2="SourceAlpha" operator="in" result="effect1_backgroundBlur_731_46"/>
<feBlend mode="normal" in="SourceGraphic" in2="effect1_backgroundBlur_731_46" result="shape"/>
</filter>
<linearGradient id="paint0_linear_731_46" x1="89.0648" y1="104.912" x2="144.303" y2="133.314" gradientUnits="userSpaceOnUse">
<stop stop-color="#FFDC7C"/>
<stop offset="1" stop-color="#F78D1E"/>
</linearGradient>
<linearGradient id="paint1_linear_731_46" x1="87.5511" y1="105.716" x2="142.789" y2="134.118" gradientUnits="userSpaceOnUse">
<stop stop-color="#FFDC7C"/>
<stop offset="1" stop-color="#F78D1E"/>
</linearGradient>
<linearGradient id="paint2_linear_731_46" x1="109.135" y1="162.029" x2="115.992" y2="100.264" gradientUnits="userSpaceOnUse">
<stop stop-color="white" stop-opacity="0.2"/>
<stop offset="1" stop-color="white" stop-opacity="0.49"/>
</linearGradient>
<linearGradient id="paint3_linear_731_46" x1="92.6953" y1="129.225" x2="144.85" y2="158.674" gradientUnits="userSpaceOnUse">
<stop stop-color="white"/>
<stop offset="1" stop-color="white" stop-opacity="0"/>
</linearGradient>
</defs>
</svg>
