<svg width="230" height="230" viewBox="0 0 230 230" fill="none" xmlns="http://www.w3.org/2000/svg">
<g filter="url(#filter0_f_731_51)">
<path d="M138.155 105.922L117.316 90.2124C113.709 87.4935 108.581 88.2132 105.862 91.8201L90.1528 112.659C87.4339 116.266 88.1537 121.394 91.7605 124.113L112.6 139.822C116.206 142.541 121.334 141.821 124.053 138.215L139.763 117.375C142.482 113.769 141.762 108.641 138.155 105.922Z" fill="url(#paint0_linear_731_51)"/>
</g>
<path d="M136.444 104.632L115.605 88.9231C111.998 86.2042 106.87 86.9239 104.151 90.5307L88.4419 111.37C85.7229 114.977 86.4427 120.105 90.0495 122.824L110.889 138.533C114.495 141.252 119.624 140.532 122.342 136.925L138.052 116.086C140.771 112.479 140.051 107.351 136.444 104.632Z" fill="url(#paint1_linear_731_51)"/>
<g filter="url(#filter1_b_731_51)">
<path d="M139.499 122.574L118.66 106.865C115.053 104.146 109.925 104.866 107.206 108.473L91.4966 129.312C88.7776 132.919 89.4974 138.047 93.1042 140.766L113.943 156.475C117.55 159.194 122.678 158.474 125.397 154.867L141.106 134.028C143.825 130.421 143.106 125.293 139.499 122.574Z" fill="url(#paint2_linear_731_51)"/>
<path d="M140.101 121.776L119.262 106.067C115.214 103.015 109.459 103.823 106.407 107.871L90.6981 128.71C87.6466 132.758 88.4544 138.513 92.5023 141.564L113.341 157.274C117.389 160.325 123.144 159.517 126.196 155.469L141.905 134.63C144.956 130.582 144.149 124.827 140.101 121.776Z" stroke="url(#paint3_linear_731_51)" stroke-width="2"/>
</g>
<defs>
<filter id="filter0_f_731_51" x="0.503906" y="0.564209" width="228.906" height="228.906" filterUnits="userSpaceOnUse" color-interpolation-filters="sRGB">
<feFlood flood-opacity="0" result="BackgroundImageFix"/>
<feBlend mode="normal" in="SourceGraphic" in2="BackgroundImageFix" result="shape"/>
<feGaussianBlur stdDeviation="44" result="effect1_foregroundBlur_731_51"/>
</filter>
<filter id="filter1_b_731_51" x="69.8477" y="85.217" width="92.9062" height="92.9062" filterUnits="userSpaceOnUse" color-interpolation-filters="sRGB">
<feFlood flood-opacity="0" result="BackgroundImageFix"/>
<feGaussianBlur in="BackgroundImageFix" stdDeviation="9"/>
<feComposite in2="SourceAlpha" operator="in" result="effect1_backgroundBlur_731_51"/>
<feBlend mode="normal" in="SourceGraphic" in2="effect1_backgroundBlur_731_51" result="shape"/>
</filter>
<linearGradient id="paint0_linear_731_51" x1="115.691" y1="144.265" x2="114.242" y2="86.5076" gradientUnits="userSpaceOnUse">
<stop stop-color="#AA83FF"/>
<stop offset="1" stop-color="#FF3FA4"/>
</linearGradient>
<linearGradient id="paint1_linear_731_51" x1="113.98" y1="142.976" x2="112.532" y2="85.2183" gradientUnits="userSpaceOnUse">
<stop stop-color="#AA83FF"/>
<stop offset="1" stop-color="#FF3FA4"/>
</linearGradient>
<linearGradient id="paint2_linear_731_51" x1="89.9301" y1="135.372" x2="142.673" y2="127.969" gradientUnits="userSpaceOnUse">
<stop stop-color="white" stop-opacity="0.2"/>
<stop offset="1" stop-color="white" stop-opacity="0.49"/>
</linearGradient>
<linearGradient id="paint3_linear_731_51" x1="112.512" y1="106.412" x2="118.009" y2="158.074" gradientUnits="userSpaceOnUse">
<stop stop-color="white"/>
<stop offset="1" stop-color="white" stop-opacity="0"/>
</linearGradient>
</defs>
</svg>
