<svg width="243" height="231" viewBox="0 0 243 231" fill="none" xmlns="http://www.w3.org/2000/svg">
<g filter="url(#filter0_f_731_88)">
<path d="M154.186 137.544L151.193 116.43C150.732 113.174 147.198 111.38 144.297 112.93L132.616 119.174L128.853 92.6158C128.392 89.3594 124.857 87.5654 121.957 89.1156L91.1753 105.564C87.7778 107.379 87.8061 112.274 91.2254 114.009L147.335 142.487C150.755 144.223 154.722 141.356 154.182 137.542L154.186 137.544Z" fill="url(#paint0_linear_731_88)"/>
</g>
<path d="M154.186 137.544L151.193 116.43C150.732 113.174 147.198 111.38 144.297 112.93L132.616 119.174L128.853 92.6158C128.392 89.3594 124.857 87.5654 121.957 89.1156L91.1753 105.564C87.7778 107.379 87.8061 112.274 91.2254 114.009L147.335 142.487C150.755 144.223 154.722 141.356 154.182 137.542L154.186 137.544Z" fill="url(#paint1_linear_731_88)"/>
<g filter="url(#filter1_b_731_88)">
<path d="M179.962 91.3066L144.602 73.36C139.492 70.7665 133.247 72.8065 130.654 77.9164L112.707 113.277C110.114 118.386 112.154 124.631 117.264 127.225L152.624 145.171C157.734 147.765 163.978 145.725 166.572 140.615L184.518 105.255C187.112 100.145 185.072 93.9 179.962 91.3066Z" fill="url(#paint2_linear_731_88)"/>
<path d="M144.149 74.2517L179.509 92.1983C184.127 94.5418 185.97 100.185 183.627 104.802L165.68 140.162C163.337 144.78 157.694 146.623 153.076 144.28L117.716 126.333C113.099 123.989 111.255 118.347 113.599 113.729L131.545 78.369C133.889 73.7515 139.532 71.9082 144.149 74.2517Z" stroke="url(#paint3_linear_731_88)" stroke-width="2"/>
</g>
<path d="M162.673 112.799C167.42 115.208 173.222 113.313 175.631 108.566C178.04 103.819 176.145 98.0172 171.398 95.6079C166.651 93.1985 160.85 95.0937 158.44 99.8408C156.031 104.588 157.926 110.389 162.673 112.799Z" fill="white"/>
<defs>
<filter id="filter0_f_731_88" x="0.644531" y="0.550537" width="241.586" height="230.455" filterUnits="userSpaceOnUse" color-interpolation-filters="sRGB">
<feFlood flood-opacity="0" result="BackgroundImageFix"/>
<feBlend mode="normal" in="SourceGraphic" in2="BackgroundImageFix" result="shape"/>
<feGaussianBlur stdDeviation="44" result="effect1_foregroundBlur_731_88"/>
</filter>
<filter id="filter1_b_731_88" x="93.582" y="54.2344" width="110.062" height="110.063" filterUnits="userSpaceOnUse" color-interpolation-filters="sRGB">
<feFlood flood-opacity="0" result="BackgroundImageFix"/>
<feGaussianBlur in="BackgroundImageFix" stdDeviation="9"/>
<feComposite in2="SourceAlpha" operator="in" result="effect1_backgroundBlur_731_88"/>
<feBlend mode="normal" in="SourceGraphic" in2="effect1_backgroundBlur_731_88" result="shape"/>
</filter>
<linearGradient id="paint0_linear_731_88" x1="95.6337" y1="94.8711" x2="160.193" y2="127.637" gradientUnits="userSpaceOnUse">
<stop stop-color="#FFDC4A"/>
<stop offset="0.49" stop-color="#5DFF9A"/>
<stop offset="1" stop-color="#4DDDFB"/>
</linearGradient>
<linearGradient id="paint1_linear_731_88" x1="95.6337" y1="94.8711" x2="160.193" y2="127.637" gradientUnits="userSpaceOnUse">
<stop stop-color="#FFDC4A"/>
<stop offset="0.49" stop-color="#5DFF9A"/>
<stop offset="1" stop-color="#4DDDFB"/>
</linearGradient>
<linearGradient id="paint2_linear_731_88" x1="112.596" y1="121.031" x2="184.63" y2="97.5" gradientUnits="userSpaceOnUse">
<stop stop-color="white" stop-opacity="0.2"/>
<stop offset="1" stop-color="white" stop-opacity="0.49"/>
</linearGradient>
<linearGradient id="paint3_linear_731_88" x1="137.002" y1="74.8302" x2="157.593" y2="145.826" gradientUnits="userSpaceOnUse">
<stop stop-color="white"/>
<stop offset="1" stop-color="white" stop-opacity="0"/>
</linearGradient>
</defs>
</svg>
