<svg width="220" height="213" viewBox="0 0 220 213" fill="none" xmlns="http://www.w3.org/2000/svg">
<g filter="url(#filter0_f_731_4)">
<path d="M113.937 89.1429L94.1781 96.2415C92.9448 96.6839 91.997 97.6867 91.6194 98.9461L88.4697 109.452C87.4991 112.69 90.6026 115.653 93.7738 114.514L110.69 108.434L121.471 122.817C123.493 125.513 127.715 124.746 128.685 121.509L131.835 111.003C132.212 109.743 131.973 108.384 131.186 107.336L118.592 90.5386C117.512 89.0987 115.626 88.5334 113.937 89.1429Z" fill="url(#paint0_linear_731_4)"/>
</g>
<path d="M113.937 89.1429L94.1781 96.2415C92.9448 96.6839 91.997 97.6867 91.6194 98.9461L88.4697 109.452C87.4991 112.69 90.6026 115.653 93.7738 114.514L110.69 108.434L121.471 122.817C123.493 125.513 127.715 124.746 128.685 121.509L131.835 111.003C132.212 109.743 131.973 108.384 131.186 107.336L118.592 90.5386C117.512 89.0987 115.626 88.5334 113.937 89.1429Z" fill="url(#paint1_linear_731_4)"/>
<g filter="url(#filter1_b_731_4)">
<path d="M112.599 101.322C125.404 105.161 138.896 97.8924 142.735 85.0874C146.574 72.2824 139.306 58.7899 126.501 54.951C113.696 51.1121 100.203 58.3805 96.3644 71.1854C92.5255 83.9904 99.7939 97.4829 112.599 101.322Z" fill="url(#paint2_linear_731_4)"/>
<path d="M141.777 84.8002C138.097 97.0762 125.162 104.044 112.886 100.364C100.61 96.6836 93.642 83.7485 97.3223 71.4726C101.003 59.1967 113.938 52.2285 126.214 55.9089C138.49 59.5892 145.458 72.5243 141.777 84.8002Z" stroke="url(#paint3_linear_731_4)" stroke-width="2"/>
</g>
<defs>
<filter id="filter0_f_731_4" x="0.289062" y="0.900391" width="219.721" height="211.555" filterUnits="userSpaceOnUse" color-interpolation-filters="sRGB">
<feFlood flood-opacity="0" result="BackgroundImageFix"/>
<feBlend mode="normal" in="SourceGraphic" in2="BackgroundImageFix" result="shape"/>
<feGaussianBlur stdDeviation="44" result="effect1_foregroundBlur_731_4"/>
</filter>
<filter id="filter1_b_731_4" x="77.3389" y="35.9253" width="84.4229" height="84.4224" filterUnits="userSpaceOnUse" color-interpolation-filters="sRGB">
<feFlood flood-opacity="0" result="BackgroundImageFix"/>
<feGaussianBlur in="BackgroundImageFix" stdDeviation="9"/>
<feComposite in2="SourceAlpha" operator="in" result="effect1_backgroundBlur_731_4"/>
<feBlend mode="normal" in="SourceGraphic" in2="effect1_backgroundBlur_731_4" result="shape"/>
</filter>
<linearGradient id="paint0_linear_731_4" x1="107.532" y1="120.59" x2="115.402" y2="89.3881" gradientUnits="userSpaceOnUse">
<stop stop-color="#EA1C39"/>
<stop offset="1" stop-color="#F37322"/>
</linearGradient>
<linearGradient id="paint1_linear_731_4" x1="107.532" y1="120.59" x2="115.402" y2="89.3881" gradientUnits="userSpaceOnUse">
<stop stop-color="#EA1C39"/>
<stop offset="1" stop-color="#F37322"/>
</linearGradient>
<linearGradient id="paint2_linear_731_4" x1="92.8162" y1="92.5378" x2="146.284" y2="63.735" gradientUnits="userSpaceOnUse">
<stop stop-color="white" stop-opacity="0.2"/>
<stop offset="1" stop-color="white" stop-opacity="0.49"/>
</linearGradient>
<linearGradient id="paint3_linear_731_4" x1="105.495" y1="52.6283" x2="131.832" y2="105.694" gradientUnits="userSpaceOnUse">
<stop stop-color="white"/>
<stop offset="1" stop-color="white" stop-opacity="0"/>
</linearGradient>
</defs>
</svg>
