<svg width="226" height="227" viewBox="0 0 226 227" fill="none" xmlns="http://www.w3.org/2000/svg">
<g filter="url(#filter0_f_731_705)">
<path d="M136.063 110.784C128.461 104.415 117.176 104.112 109.186 110.599C101.196 117.087 99.1746 128.193 103.846 136.941C104.853 138.83 107.371 139.296 109.031 137.948L135.979 116.068C137.644 114.717 137.704 112.165 136.058 110.787L136.063 110.784Z" fill="url(#paint0_linear_731_705)"/>
<path d="M106.055 106.744C110.555 103.091 111.241 96.4821 107.587 91.9829C103.934 87.4836 97.3256 86.7976 92.8263 90.4507C88.3271 94.1038 87.6411 100.713 91.2942 105.212C94.9472 109.711 101.556 110.397 106.055 106.744Z" fill="url(#paint1_linear_731_705)"/>
</g>
<path d="M136.063 110.784C128.461 104.415 117.176 104.112 109.186 110.599C101.196 117.087 99.1746 128.193 103.846 136.941C104.853 138.831 107.371 139.296 109.031 137.949L135.979 116.068C137.644 114.717 137.704 112.166 136.058 110.788L136.063 110.784Z" fill="url(#paint2_linear_731_705)"/>
<path d="M106.055 106.744C110.555 103.091 111.241 96.4824 107.587 91.9831C103.934 87.4838 97.3256 86.7979 92.8263 90.4509C88.3271 94.104 87.6411 100.713 91.2942 105.212C94.9472 109.711 101.556 110.397 106.055 106.744Z" fill="url(#paint3_linear_731_705)"/>
<g filter="url(#filter1_b_731_705)">
<path d="M113.138 128.075C103.606 120.094 89.4552 119.711 79.4402 127.843C69.4253 135.974 66.8941 149.902 72.7467 160.87C74.0116 163.242 77.1601 163.825 79.2465 162.131L113.033 134.699C115.119 133.005 115.195 129.804 113.134 128.079L113.138 128.075Z" fill="url(#paint4_linear_731_705)"/>
<path d="M80.0706 128.619C89.5567 120.917 102.901 121.153 112.065 128.489L112.492 128.846C114.054 130.153 114.018 132.611 112.402 133.923L78.6162 161.355C77.0006 162.666 74.5876 162.197 73.6291 160.4L73.629 160.399C67.9973 149.845 70.4344 136.443 80.0706 128.619Z" stroke="url(#paint5_linear_731_705)" stroke-width="2"/>
</g>
<g filter="url(#filter2_b_731_705)">
<path d="M77.6352 120.84C82.0713 115.089 81.0055 106.831 75.2546 102.395C69.5038 97.9588 61.2457 99.0246 56.8096 104.775C52.3735 110.526 53.4393 118.784 59.1902 123.22C64.941 127.657 73.1991 126.591 77.6352 120.84Z" fill="url(#paint6_linear_731_705)"/>
<path d="M74.6438 103.187C79.9574 107.285 80.9422 114.916 76.8434 120.229C72.7446 125.543 65.1145 126.527 59.8009 122.429C54.4874 118.33 53.5026 110.7 57.6014 105.386C61.7001 100.073 69.3303 99.0879 74.6438 103.187Z" stroke="url(#paint7_linear_731_705)" stroke-width="2"/>
</g>
<defs>
<filter id="filter0_f_731_705" x="0.947266" y="0.103271" width="224.312" height="226.617" filterUnits="userSpaceOnUse" color-interpolation-filters="sRGB">
<feFlood flood-opacity="0" result="BackgroundImageFix"/>
<feBlend mode="normal" in="SourceGraphic" in2="BackgroundImageFix" result="shape"/>
<feGaussianBlur stdDeviation="44" result="effect1_foregroundBlur_731_705"/>
</filter>
<filter id="filter1_b_731_705" x="51.6426" y="103.915" width="80.9961" height="77.1885" filterUnits="userSpaceOnUse" color-interpolation-filters="sRGB">
<feFlood flood-opacity="0" result="BackgroundImageFix"/>
<feGaussianBlur in="BackgroundImageFix" stdDeviation="9"/>
<feComposite in2="SourceAlpha" operator="in" result="effect1_backgroundBlur_731_705"/>
<feBlend mode="normal" in="SourceGraphic" in2="effect1_backgroundBlur_731_705" result="shape"/>
</filter>
<filter id="filter2_b_731_705" x="36.0703" y="81.6562" width="62.3027" height="62.3027" filterUnits="userSpaceOnUse" color-interpolation-filters="sRGB">
<feFlood flood-opacity="0" result="BackgroundImageFix"/>
<feGaussianBlur in="BackgroundImageFix" stdDeviation="9"/>
<feComposite in2="SourceAlpha" operator="in" result="effect1_backgroundBlur_731_705"/>
<feBlend mode="normal" in="SourceGraphic" in2="effect1_backgroundBlur_731_705" result="shape"/>
</filter>
<linearGradient id="paint0_linear_731_705" x1="129.838" y1="136.035" x2="89.7853" y2="86.7046" gradientUnits="userSpaceOnUse">
<stop stop-color="#F6005A"/>
<stop offset="1" stop-color="#F7CBAD"/>
</linearGradient>
<linearGradient id="paint1_linear_731_705" x1="-80.9096" y1="-123.529" x2="89.7847" y2="86.7046" gradientUnits="userSpaceOnUse">
<stop stop-color="#F6005A"/>
<stop offset="1" stop-color="#F7CBAD"/>
</linearGradient>
<linearGradient id="paint2_linear_731_705" x1="129.838" y1="136.035" x2="89.7853" y2="86.7048" gradientUnits="userSpaceOnUse">
<stop stop-color="#F6005A"/>
<stop offset="1" stop-color="#F7CBAD"/>
</linearGradient>
<linearGradient id="paint3_linear_731_705" x1="-80.9096" y1="-123.529" x2="89.7847" y2="86.7048" gradientUnits="userSpaceOnUse">
<stop stop-color="#F6005A"/>
<stop offset="1" stop-color="#F7CBAD"/>
</linearGradient>
<linearGradient id="paint4_linear_731_705" x1="77.2294" y1="161.842" x2="68.4056" y2="120.865" gradientUnits="userSpaceOnUse">
<stop stop-color="white" stop-opacity="0.2"/>
<stop offset="1" stop-color="white" stop-opacity="0.49"/>
</linearGradient>
<linearGradient id="paint5_linear_731_705" x1="63.3566" y1="143.586" x2="99.5476" y2="160.865" gradientUnits="userSpaceOnUse">
<stop stop-color="white"/>
<stop offset="1" stop-color="white" stop-opacity="0"/>
</linearGradient>
<linearGradient id="paint6_linear_731_705" x1="69.3342" y1="129.17" x2="65.1106" y2="96.4453" gradientUnits="userSpaceOnUse">
<stop stop-color="white" stop-opacity="0.2"/>
<stop offset="1" stop-color="white" stop-opacity="0.49"/>
</linearGradient>
<linearGradient id="paint7_linear_731_705" x1="51.5492" y1="114.982" x2="83.591" y2="111.931" gradientUnits="userSpaceOnUse">
<stop stop-color="white"/>
<stop offset="1" stop-color="white" stop-opacity="0"/>
</linearGradient>
</defs>
</svg>
