<svg width="229" height="240" viewBox="0 0 229 240" fill="none" xmlns="http://www.w3.org/2000/svg">
<g filter="url(#filter0_f_731_118)">
<path d="M114.204 150.579L92.3227 139.467C88.522 137.537 87.0062 132.893 88.9363 129.092L103.637 100.144C104.444 98.5542 105.776 97.2969 107.402 96.5759L125.135 88.7579C129.595 86.789 134.742 89.4028 135.784 94.1659L139.933 113.096C140.316 114.837 140.081 116.652 139.274 118.242L124.574 147.19C122.644 150.99 118 152.506 114.199 150.576L114.204 150.579Z" fill="url(#paint0_linear_731_118)"/>
</g>
<path d="M114.204 150.579L92.3227 139.467C88.522 137.537 87.0062 132.893 88.9363 129.092L103.637 100.144C104.444 98.5542 105.776 97.2969 107.402 96.5759L125.135 88.7579C129.595 86.789 134.742 89.4028 135.784 94.1659L139.933 113.096C140.316 114.837 140.081 116.652 139.274 118.242L124.574 147.19C122.644 150.99 118 152.506 114.199 150.576L114.204 150.579Z" fill="url(#paint1_linear_731_118)"/>
<g filter="url(#filter1_b_731_118)">
<path d="M128.539 116.705L135.485 98.6151C137.231 94.0608 134.375 89.0498 129.565 88.2408L110.46 85.0135C108.704 84.7154 106.9 85.0391 105.352 85.9202L77.1483 102.003C73.4474 104.117 72.1551 108.829 74.2697 112.53L86.4283 133.847C88.5429 137.548 93.2542 138.84 96.9552 136.725L125.154 120.64C126.701 119.759 127.896 118.365 128.534 116.702L128.539 116.705ZM130.368 101.051C127.702 102.571 124.312 101.643 122.792 98.9773C121.272 96.3117 122.2 92.9222 124.865 91.402C127.531 89.8819 130.921 90.8097 132.441 93.4753C133.961 96.1409 133.033 99.5304 130.368 101.051Z" fill="url(#paint2_linear_731_118)"/>
<path d="M134.551 98.2571L128.003 115.311L127.997 115.308L127.6 116.344C127.045 117.792 126.005 119.005 124.659 119.771L124.658 119.771L96.4597 135.857L96.4591 135.857C93.2391 137.697 89.138 136.573 87.2966 133.351L75.1383 112.034L75.1379 112.034C73.2981 108.814 74.4216 104.713 77.6444 102.871L105.847 86.7892C107.196 86.0213 108.767 85.7402 110.293 85.9993L110.294 85.9995L129.398 89.2268L129.399 89.2269C133.584 89.9309 136.071 94.2916 134.551 98.2571ZM121.924 99.4727C123.717 102.618 127.717 103.713 130.863 101.919C134.008 100.126 135.103 96.1253 133.309 92.9799C131.516 89.8346 127.516 88.7395 124.37 90.5333C121.225 92.3271 120.13 96.3272 121.924 99.4727Z" stroke="url(#paint3_linear_731_118)" stroke-width="2"/>
</g>
<defs>
<filter id="filter0_f_731_118" x="0.0976562" y="0.097168" width="228.015" height="239.317" filterUnits="userSpaceOnUse" color-interpolation-filters="sRGB">
<feFlood flood-opacity="0" result="BackgroundImageFix"/>
<feBlend mode="normal" in="SourceGraphic" in2="BackgroundImageFix" result="shape"/>
<feGaussianBlur stdDeviation="44" result="effect1_foregroundBlur_731_118"/>
</filter>
<filter id="filter1_b_731_118" x="55.2529" y="66.9053" width="98.749" height="88.8364" filterUnits="userSpaceOnUse" color-interpolation-filters="sRGB">
<feFlood flood-opacity="0" result="BackgroundImageFix"/>
<feGaussianBlur in="BackgroundImageFix" stdDeviation="9"/>
<feComposite in2="SourceAlpha" operator="in" result="effect1_backgroundBlur_731_118"/>
<feBlend mode="normal" in="SourceGraphic" in2="effect1_backgroundBlur_731_118" result="shape"/>
</filter>
<linearGradient id="paint0_linear_731_118" x1="102.117" y1="147.281" x2="130.449" y2="91.4897" gradientUnits="userSpaceOnUse">
<stop stop-color="#FF5C00"/>
<stop offset="0.52" stop-color="#FFCA40"/>
<stop offset="1" stop-color="#FFE0F9"/>
</linearGradient>
<linearGradient id="paint1_linear_731_118" x1="102.117" y1="147.281" x2="130.449" y2="91.4897" gradientUnits="userSpaceOnUse">
<stop stop-color="#FF5C00"/>
<stop offset="0.52" stop-color="#FFCA40"/>
<stop offset="1" stop-color="#FFE0F9"/>
</linearGradient>
<linearGradient id="paint2_linear_731_118" x1="68.7717" y1="122.393" x2="138.596" y2="104.854" gradientUnits="userSpaceOnUse">
<stop stop-color="white" stop-opacity="0.2"/>
<stop offset="1" stop-color="white" stop-opacity="0.49"/>
</linearGradient>
<linearGradient id="paint3_linear_731_118" x1="93.6602" y1="75.0617" x2="117.962" y2="141.299" gradientUnits="userSpaceOnUse">
<stop stop-color="white"/>
<stop offset="1" stop-color="white" stop-opacity="0"/>
</linearGradient>
</defs>
</svg>
