<svg width="35" height="35" viewBox="0 0 35 35" fill="none" xmlns="http://www.w3.org/2000/svg">
<g clip-path="url(#clip0_101_208)">
<path fill-rule="evenodd" clip-rule="evenodd" d="M12.5 4C13.1903 4 13.75 4.55965 13.75 5.25V6.5H21.25V5.25C21.25 4.55965 21.8096 4 22.5 4C23.1904 4 23.75 4.55965 23.75 5.25V6.5H26.25C27.2446 6.5 28.1984 6.89509 28.9016 7.59835C29.6049 8.30161 30 9.25544 30 10.25V27.75C30 28.7446 29.6049 29.6984 28.9016 30.4016C28.1984 31.1049 27.2446 31.5 26.25 31.5H8.75C7.75544 31.5 6.80161 31.1049 6.09835 30.4016C5.39509 29.6984 5 28.7446 5 27.75V10.25C5 9.25544 5.39509 8.30161 6.09835 7.59835C6.80161 6.89509 7.75544 6.5 8.75 6.5H11.25V5.25C11.25 4.55965 11.8096 4 12.5 4ZM11.25 9H8.75C8.41847 9 8.10054 9.1317 7.86611 9.36611C7.6317 9.60054 7.5 9.91848 7.5 10.25V14H27.5V10.25C27.5 9.91848 27.3682 9.60054 27.1339 9.36611C26.8995 9.1317 26.5815 9 26.25 9H23.75V10.25C23.75 10.9404 23.1904 11.5 22.5 11.5C21.8096 11.5 21.25 10.9404 21.25 10.25V9H13.75V10.25C13.75 10.9404 13.1903 11.5 12.5 11.5C11.8096 11.5 11.25 10.9404 11.25 10.25V9ZM27.5 16.5H7.5V27.75C7.5 28.0815 7.6317 28.3995 7.86611 28.6339C8.10054 28.8682 8.41847 29 8.75 29H26.25C26.5815 29 26.8995 28.8682 27.1339 28.6339C27.3682 28.3995 27.5 28.0815 27.5 27.75V16.5Z" fill="#818080"/>
</g>
<defs>
<clipPath id="clip0_101_208">
<rect width="35" height="35" fill="white"/>
</clipPath>
</defs>
</svg>
