<svg width="47" height="47" viewBox="0 0 47 47" fill="none" xmlns="http://www.w3.org/2000/svg">
<path d="M34.7447 3.67659L31.9214 6.53501L34.717 9.36541C36.2559 10.9235 37.5347 12.1958 37.5679 12.1958C37.5956 12.1958 37.9277 11.8875 38.2986 11.512L38.9795 10.8226L37.3631 9.18606L35.7411 7.54386H37.7783C40.0092 7.54386 40.286 7.57189 41.0832 7.88575C41.9966 8.23885 42.9653 9.07396 43.4857 9.9427C43.6352 10.1949 43.8455 10.6601 43.9562 10.974L44.1555 11.5513L44.1721 14.533L44.1887 17.5203H45.1852H46.1816L46.1595 14.505C46.1429 11.9548 46.1263 11.4392 46.0488 11.1141C45.7056 9.68488 45.1022 8.58074 44.1279 7.59431C43.0761 6.51819 41.7917 5.86244 40.2805 5.61022C39.904 5.54857 39.2785 5.52615 37.7617 5.52615H35.7411L37.3631 3.88396L38.9795 2.24737L38.271 1.52996L37.5679 0.818161L34.7447 3.67659Z" fill="#818080"/>
<path d="M3.85513 5.61027C2.45457 5.91853 1.40277 6.88255 0.887936 8.32858L0.755077 8.69289L0.738469 16.3434C0.721862 24.829 0.705255 24.3974 1.08723 25.2269C1.45259 26.034 2.06706 26.6673 2.88636 27.0989C3.74442 27.5529 3.14655 27.5193 10.7361 27.5361L17.5009 27.5585V32.642C17.5009 35.719 17.5231 37.8768 17.5563 38.1122C17.6836 39.009 18.0268 39.6872 18.6911 40.3597C19.1949 40.8698 19.6543 41.1612 20.2965 41.3854L20.7394 41.5367H31.811H42.8826L43.2978 41.4078C44.4382 41.0435 45.2464 40.3541 45.7668 39.2948C46.2041 38.4037 46.182 38.9137 46.1654 30.3665L46.1487 22.7608L46.0214 22.3685C45.6007 21.1018 44.6928 20.1714 43.4362 19.723L42.9933 19.5661L36.2009 19.5493L29.4084 19.5381L29.3863 14.2248C29.3752 10.3295 29.3476 8.84982 29.3033 8.66486C29.0929 7.87459 28.7386 7.25246 28.1906 6.7032C27.7034 6.21559 27.2329 5.92414 26.6073 5.70555L26.1645 5.55422L15.1759 5.54301C6.26875 5.53741 4.12639 5.54862 3.85513 5.61027ZM26.1479 7.67843C26.552 7.84657 26.862 8.09318 27.0668 8.42946C27.3602 8.89466 27.41 9.1805 27.41 10.4135V11.5233H15.0319H2.65386L2.676 10.3295C2.69815 9.24776 2.70922 9.11324 2.83101 8.81059C2.96387 8.45188 3.32369 8.01471 3.64477 7.81854C4.08764 7.53831 3.59495 7.54952 15.0652 7.54952L25.8323 7.54391L26.1479 7.67843ZM27.41 17.5484V19.5325L24.0775 19.5493C20.7504 19.5661 20.7394 19.5661 20.3519 19.7006C19.6488 19.936 19.2281 20.1994 18.7188 20.7151C18.1984 21.2419 17.9493 21.6287 17.75 22.2116C17.5507 22.7944 17.5009 23.2204 17.5009 24.4254V25.5352H10.9244H4.34782L3.98799 25.4119C3.51745 25.2549 3.02476 24.7673 2.82547 24.2741L2.69261 23.9378L2.676 19.7455L2.6594 15.5587H15.0375H27.41V17.5484ZM43.0321 21.7071C43.3974 21.8753 43.8237 22.2956 44.0009 22.6711C44.1559 22.9794 44.1559 22.9962 44.1725 24.2573L44.1891 25.5352H31.8387H19.4827L19.5049 24.2853C19.5215 23.1307 19.5326 23.0186 19.6488 22.7664C19.9035 22.2059 20.3352 21.8136 20.8944 21.6343C21.0826 21.5782 23.1087 21.567 31.9494 21.5726L42.7719 21.5838L43.0321 21.7071ZM44.1725 33.8302L44.1559 38.1178L43.9953 38.4429C43.796 38.8409 43.4473 39.1715 43.0321 39.3677L42.7165 39.519H31.8387H20.9608L20.6453 39.3677C20.2411 39.1771 19.8868 38.8184 19.682 38.3925L19.5215 38.0618L19.5049 33.8638C19.4993 31.5491 19.4993 29.6322 19.5104 29.6042C19.527 29.5594 23.2969 29.5426 31.8608 29.5426H44.1835L44.1725 33.8302Z" fill="#818080"/>
<path d="M0.727295 32.3841C0.727295 35.4723 0.749438 35.7246 1.05944 36.7166C1.39159 37.7591 1.92857 38.6278 2.74787 39.4685C3.54502 40.2756 4.45843 40.8585 5.46042 41.1892C6.42365 41.5087 6.51776 41.5199 8.91476 41.5479L11.1512 41.5759L9.54031 43.2069L7.92385 44.8435L8.63244 45.5609L9.33548 46.2727L12.1587 43.4143L14.982 40.5559L12.1587 37.6974L9.33548 34.839L8.63244 35.5508L7.92385 36.2682L9.54031 37.9104L11.1623 39.5526L8.97566 39.5302C6.89973 39.5134 6.76687 39.5078 6.34615 39.3845C4.72415 38.9193 3.4177 37.647 2.92501 36.044C2.70358 35.321 2.66483 34.7661 2.66483 32.0759V29.5705H1.69606H0.727295V32.3841Z" fill="#818080"/>
</svg>
