<svg width="35" height="35" viewBox="0 0 35 35" fill="none" xmlns="http://www.w3.org/2000/svg">
    <path d="M21.3413 21.4441C21.513 21.6172 21.7173 21.7546 21.9424 21.8484C22.1675 21.9422 22.409 21.9905 22.6528 21.9905C22.8967 21.9905 23.1381 21.9422 23.3632 21.8484C23.5883 21.7546 23.7926 21.6172 23.9643 21.4441L31.3532 14.0552C31.3532 14.0552 31.3532 13.9074 31.4825 13.852C31.5848 13.7341 31.6717 13.6038 31.7412 13.4641C31.8377 13.2362 31.8874 12.9912 31.8874 12.7437C31.8874 12.4962 31.8377 12.2512 31.7412 12.0233C31.6717 11.8835 31.5848 11.7532 31.4825 11.6353C31.4437 11.565 31.4005 11.4971 31.3532 11.4321L23.9643 4.04325C23.7921 3.87102 23.5876 3.7344 23.3626 3.64119C23.1376 3.54798 22.8964 3.5 22.6528 3.5C22.1609 3.5 21.6891 3.69541 21.3413 4.04325C21.1691 4.21548 21.0324 4.41995 20.9392 4.64499C20.846 4.87002 20.798 5.11121 20.798 5.35478C20.798 5.8467 20.9935 6.31847 21.3413 6.66631L25.5899 10.8964H13.4167C7.09921 10.8964 2.33337 15.2559 2.33337 21.0562C2.33337 26.8564 7.09921 31.2159 13.4167 31.2159H22.6528C23.1427 31.2159 23.6126 31.0213 23.959 30.6749C24.3054 30.3284 24.5 29.8586 24.5 29.3687C24.5 28.8788 24.3054 28.4089 23.959 28.0625C23.6126 27.7161 23.1427 27.5214 22.6528 27.5214H13.4167C9.13115 27.5214 6.02782 24.806 6.02782 21.0562C6.02782 17.3063 9.13115 14.5909 13.4167 14.5909H25.5899L21.3413 18.821C21.1682 18.9928 21.0307 19.1971 20.937 19.4222C20.8432 19.6473 20.7949 19.8887 20.7949 20.1326C20.7949 20.3764 20.8432 20.6179 20.937 20.843C21.0307 21.0681 21.1682 21.2724 21.3413 21.4441Z"
          fill="#818080"/>
</svg>
