<svg width="60" height="60" viewBox="0 0 60 60" fill="none" xmlns="http://www.w3.org/2000/svg">
<circle cx="30" cy="30" r="23.5" stroke="url(#paint0_linear_69_37)" stroke-width="3"/>
<path d="M34.6159 26.32L34.1379 26.8905L34.8468 27.1173C36.8085 27.7451 38.5153 28.989 39.7136 30.6642C40.9119 32.3394 41.5378 34.3565 41.4982 36.4158L41.4981 36.4158V36.4254C41.4981 39.1138 40.0145 41.0894 37.7523 42.4173C35.4764 43.7534 32.4456 44.4063 29.5 44.4063V44.4062L29.4901 44.4064C26.7148 44.4613 23.9689 43.8299 21.4963 42.5683L21.4964 42.5682L21.4844 42.5624C20.3173 42.0055 19.3273 41.1361 18.6242 40.0507C17.9214 38.9656 17.5329 37.707 17.5017 36.4146C17.4624 34.3557 18.0883 32.339 19.2864 30.6642C20.4847 28.989 22.1915 27.7451 24.1532 27.1173L24.8621 26.8905L24.3841 26.32C23.4024 25.1484 22.8624 23.6697 22.8582 22.1412C22.8584 20.3799 23.5581 18.6908 24.8035 17.4453C26.0491 16.1998 27.7385 15.5 29.5 15.5C31.2615 15.5 32.9509 16.1998 34.1965 17.4453C35.4419 18.6908 36.1416 20.3799 36.1418 22.1412C36.1376 23.6697 35.5976 25.1484 34.6159 26.32ZM26.1152 19.8801C25.6679 20.5496 25.4291 21.3366 25.4291 22.1418C25.4291 23.2215 25.858 24.2569 26.6214 25.0204C27.3849 25.7838 28.4203 26.2127 29.5 26.2127C30.3051 26.2127 31.0922 25.9739 31.7617 25.5266C32.4311 25.0793 32.9529 24.4435 33.261 23.6997C33.5691 22.9558 33.6498 22.1373 33.4927 21.3476C33.3356 20.5579 32.9479 19.8326 32.3786 19.2632C31.8092 18.6939 31.0839 18.3062 30.2942 18.1491C29.5045 17.992 28.686 18.0727 27.9421 18.3808C27.1983 18.6889 26.5625 19.2107 26.1152 19.8801ZM29.5 28.7836C27.279 28.7836 24.9395 29.2636 23.1389 30.4632C21.3126 31.6799 20.0728 33.6191 20.0728 36.4254C20.0728 38.3131 21.3905 39.6567 23.1457 40.5015C24.9066 41.3491 27.2182 41.7595 29.5 41.7595C31.7818 41.7595 34.0934 41.3491 35.8543 40.5015C37.6095 39.6567 38.9272 38.3131 38.9272 36.4254C38.9272 33.6191 37.6874 31.6799 35.8611 30.4632C34.0605 29.2636 31.7209 28.7836 29.5 28.7836Z" fill="url(#paint1_linear_69_37)" stroke="url(#paint2_linear_69_37)"/>
<defs>
<linearGradient id="paint0_linear_69_37" x1="30" y1="5" x2="30" y2="55" gradientUnits="userSpaceOnUse">
<stop stop-color="#D72828"/>
<stop offset="1" stop-color="#8E8CEF"/>
</linearGradient>
<linearGradient id="paint1_linear_69_37" x1="29.5" y1="15" x2="29.5" y2="44.9097" gradientUnits="userSpaceOnUse">
<stop stop-color="#D72828"/>
<stop offset="1" stop-color="#8E8CEF"/>
</linearGradient>
<linearGradient id="paint2_linear_69_37" x1="29.5" y1="15" x2="29.5" y2="44.9097" gradientUnits="userSpaceOnUse">
<stop stop-color="#D72828"/>
<stop offset="1" stop-color="#8E8CEF"/>
</linearGradient>
</defs>
</svg>
