<svg width="60" height="60" viewBox="0 0 60 60" fill="none" xmlns="http://www.w3.org/2000/svg">
<path d="M34.9992 26.6411C36.0562 25.3797 36.6374 23.7875 36.6418 22.1418C36.6418 20.2477 35.8894 18.4311 34.55 17.0918C33.2107 15.7524 31.3941 15 29.5 15C27.6059 15 25.7893 15.7524 24.45 17.0918C23.1106 18.4311 22.3582 20.2477 22.3582 22.1418C22.3626 23.7875 22.9438 25.3797 24.0008 26.6411C21.9366 27.3017 20.1407 28.6106 18.8797 30.3733C17.6188 32.136 16.9602 34.2585 17.0019 36.4254C17.035 37.8106 17.4513 39.1595 18.2046 40.3225C18.9578 41.4854 20.0186 42.417 21.2691 43.0137C23.815 44.3127 26.6424 44.9628 29.5 44.9063C35.517 44.9063 41.9981 42.2459 41.9981 36.4254C42.0398 34.2585 41.3812 32.136 40.1203 30.3733C38.8593 28.6106 37.0634 27.3017 34.9992 26.6411ZM25.9291 22.1418C25.9291 21.4355 26.1385 20.7451 26.5309 20.1579C26.9233 19.5707 27.481 19.113 28.1335 18.8427C28.786 18.5724 29.504 18.5017 30.1966 18.6395C30.8893 18.7773 31.5256 19.1174 32.025 19.6168C32.5244 20.1162 32.8645 20.7525 33.0023 21.4451C33.1401 22.1378 33.0694 22.8558 32.7991 23.5083C32.5288 24.1608 32.0711 24.7185 31.4839 25.1109C30.8967 25.5033 30.2063 25.7127 29.5 25.7127C28.5529 25.7127 27.6447 25.3365 26.975 24.6668C26.3053 23.9971 25.9291 23.0889 25.9291 22.1418ZM20.5728 36.4254C20.5728 31.1583 25.1792 29.2836 29.5 29.2836C33.8208 29.2836 38.4272 31.1583 38.4272 36.4254C38.4272 42.8709 20.5728 42.8709 20.5728 36.4254Z" fill="#818080"/>
<circle cx="30" cy="30" r="23.5" stroke="#818080" stroke-width="3"/>
</svg>
