<svg width="35" height="35" viewBox="0 0 35 35" fill="none" xmlns="http://www.w3.org/2000/svg">
    <path d="M30.4863 27.1306L24.46 21.3442C26.145 19.1275 26.8991 16.38 26.5713 13.6511C26.2436 10.9222 24.8582 8.41293 22.6923 6.6251C20.5263 4.83728 17.7394 3.90263 14.8887 4.00804C12.038 4.11344 9.3337 5.25114 7.31648 7.19365C5.29926 9.13615 4.11781 11.7403 4.00835 14.4854C3.89888 17.2305 4.86948 19.9142 6.72607 22C8.58266 24.0857 11.1884 25.4197 14.0223 25.7354C16.8562 26.051 19.7093 25.3249 22.0113 23.7022L28.0202 29.5053C28.1817 29.6621 28.3737 29.7865 28.5854 29.8714C28.797 29.9563 29.024 30 29.2533 30C29.4825 30 29.7095 29.9563 29.9211 29.8714C30.1328 29.7865 30.3248 29.6621 30.4863 29.5053C30.6491 29.3499 30.7783 29.1649 30.8664 28.9611C30.9546 28.7573 31 28.5387 31 28.3179C31 28.0972 30.9546 27.8786 30.8664 27.6748C30.7783 27.471 30.6491 27.286 30.4863 27.1306ZM15.3598 22.4647C13.8141 22.4647 12.3032 22.0233 11.018 21.1964C9.73283 20.3695 8.73116 19.1941 8.13965 17.819C7.54815 16.4439 7.39339 14.9307 7.69493 13.4709C7.99648 12.0111 8.74079 10.6702 9.83374 9.61768C10.9267 8.5652 12.3192 7.84846 13.8352 7.55808C15.3512 7.2677 16.9225 7.41674 18.3505 7.98633C19.7785 8.55593 20.9991 9.5205 21.8578 10.7581C22.7165 11.9957 23.1749 13.4507 23.1749 14.9391C23.1703 16.9336 22.3454 18.8452 20.8808 20.2556C19.4162 21.666 17.4311 22.4603 15.3598 22.4647Z"
          fill="#818080"/>
</svg>
