<svg width="35" height="35" viewBox="0 0 35 35" fill="none" xmlns="http://www.w3.org/2000/svg">
<path d="M32.4292 29.0048L25.7334 22.4994C27.6056 20.0073 28.4434 16.9184 28.0793 13.8503C27.7151 10.7823 26.1758 7.96128 23.7692 5.9513C21.3626 3.94132 18.2659 2.89053 15.0985 3.00904C11.9311 3.12754 8.92633 4.40661 6.68498 6.59049C4.44363 8.77437 3.1309 11.7021 3.00927 14.7883C2.88765 17.8745 3.96609 20.8917 6.02897 23.2366C8.09184 25.5816 10.9871 27.0814 14.1359 27.4362C17.2846 27.791 20.4548 26.9747 23.0126 25.1504L29.6891 31.6746C29.8685 31.8508 30.0819 31.9907 30.3171 32.0862C30.5522 32.1816 30.8044 32.2308 31.0592 32.2308C31.3139 32.2308 31.5661 32.1816 31.8013 32.0862C32.0364 31.9907 32.2498 31.8508 32.4292 31.6746C32.6101 31.4998 32.7536 31.2919 32.8516 31.0628C32.9496 30.8337 33 30.5879 33 30.3397C33 30.0915 32.9496 29.8457 32.8516 29.6166C32.7536 29.3875 32.6101 29.1796 32.4292 29.0048ZM15.622 23.7591C13.9046 23.7591 12.2258 23.2629 10.7978 22.3332C9.36981 21.4036 8.25684 20.0822 7.59961 18.5362C6.94239 16.9902 6.77043 15.289 7.10548 13.6478C7.44053 12.0065 8.26754 10.499 9.48194 9.31573C10.6963 8.13248 12.2436 7.32667 13.928 7.00021C15.6124 6.67375 17.3583 6.8413 18.945 7.48167C20.5317 8.12205 21.8879 9.20648 22.842 10.5978C23.7961 11.9892 24.3054 13.625 24.3054 15.2984C24.3003 17.5408 23.3838 19.6899 21.7565 21.2755C20.1291 22.8612 17.9234 23.7542 15.622 23.7591Z" fill="#818080"/>
</svg>
