<svg width="35" height="35" viewBox="0 0 35 35" fill="none" xmlns="http://www.w3.org/2000/svg">
<path d="M22.9992 14.6411C24.0562 13.3797 24.6374 11.7875 24.6418 10.1418C24.6418 8.24767 23.8894 6.43113 22.55 5.09178C21.2107 3.75244 19.3941 3 17.5 3C15.6059 3 13.7893 3.75244 12.45 5.09178C11.1106 6.43113 10.3582 8.24767 10.3582 10.1418C10.3626 11.7875 10.9438 13.3797 12.0008 14.6411C9.93664 15.3017 8.14066 16.6106 6.87973 18.3733C5.61881 20.136 4.96023 22.2585 5.00186 24.4254C5.03503 25.8106 5.45134 27.1595 6.20459 28.3225C6.95783 29.4854 8.01857 30.417 9.26908 31.0137C11.815 32.3127 14.6424 32.9628 17.5 32.9063C23.517 32.9063 29.9981 30.2459 29.9981 24.4254C30.0398 22.2585 29.3812 20.136 28.1203 18.3733C26.8593 16.6106 25.0634 15.3017 22.9992 14.6411ZM13.9291 10.1418C13.9291 9.43554 14.1385 8.74514 14.5309 8.15791C14.9233 7.57068 15.481 7.11299 16.1335 6.84272C16.786 6.57244 17.504 6.50173 18.1966 6.63951C18.8893 6.77729 19.5256 7.11739 20.025 7.61679C20.5244 8.11619 20.8645 8.75246 21.0023 9.44515C21.1401 10.1378 21.0694 10.8558 20.7991 11.5083C20.5288 12.1608 20.0711 12.7185 19.4839 13.1109C18.8967 13.5033 18.2063 13.7127 17.5 13.7127C16.5529 13.7127 15.6447 13.3365 14.975 12.6668C14.3053 11.9971 13.9291 11.0889 13.9291 10.1418ZM8.57276 24.4254C8.57276 19.1583 13.1792 17.2836 17.5 17.2836C21.8208 17.2836 26.4272 19.1583 26.4272 24.4254C26.4272 30.8709 8.57276 30.8709 8.57276 24.4254Z" fill="#818080"/>
</svg>
