<svg width="35" height="35" viewBox="0 0 35 35" fill="none" xmlns="http://www.w3.org/2000/svg">
    <g clip-path="url(#clip0_57_218)">
        <path d="M20.2388 17.5099L28.4545 9.31351C28.6347 9.13327 28.7777 8.9193 28.8753 8.6838C28.9728 8.44831 29.023 8.19591 29.023 7.94101C29.023 7.68611 28.9728 7.43371 28.8753 7.19822C28.7777 6.96272 28.6347 6.74875 28.4545 6.56851C28.2743 6.38827 28.0603 6.2453 27.8248 6.14775C27.5893 6.05021 27.3369 6 27.082 6C26.8271 6 26.5747 6.05021 26.3392 6.14775C26.1037 6.2453 25.8897 6.38827 25.7095 6.56851L17.5132 14.7842L9.31681 6.56851C8.9528 6.2045 8.4591 6 7.94431 6C7.42952 6 6.93582 6.2045 6.57181 6.56851C6.2078 6.93252 6.0033 7.42622 6.0033 7.94101C6.0033 8.4558 6.2078 8.9495 6.57181 9.31351L14.7875 17.5099L6.57181 25.7062C6.39062 25.8859 6.24681 26.0997 6.14867 26.3353C6.05053 26.5708 6 26.8235 6 27.0787C6 27.3339 6.05053 27.5866 6.14867 27.8221C6.24681 28.0577 6.39062 28.2715 6.57181 28.4512C6.75151 28.6324 6.96532 28.7762 7.20088 28.8743C7.43645 28.9725 7.68912 29.023 7.94431 29.023C8.1995 29.023 8.45217 28.9725 8.68773 28.8743C8.9233 28.7762 9.1371 28.6324 9.31681 28.4512L17.5132 20.2355L25.7095 28.4512C25.8892 28.6324 26.103 28.7762 26.3386 28.8743C26.5741 28.9725 26.8268 29.023 27.082 29.023C27.3372 29.023 27.5899 28.9725 27.8254 28.8743C28.061 28.7762 28.2748 28.6324 28.4545 28.4512C28.6357 28.2715 28.7795 28.0577 28.8776 27.8221C28.9758 27.5866 29.0263 27.3339 29.0263 27.0787C29.0263 26.8235 28.9758 26.5708 28.8776 26.3353C28.7795 26.0997 28.6357 25.8859 28.4545 25.7062L20.2388 17.5099Z"
              fill="#818080"/>
    </g>
    <defs>
        <clipPath id="clip0_57_218">
            <rect width="35" height="35" fill="white"/>
        </clipPath>
    </defs>
</svg>
