<svg width="776" height="100" viewBox="0 0 776 100" fill="none" xmlns="http://www.w3.org/2000/svg">
    <path d="M64.75 98L60.0625 80.0625H32.5625L27.875 98H0.875L30.3125 7.8125H63.5625L93 98H64.75ZM46.0625 28.625L37.375 61.375H55.25L46.5625 28.625H46.0625ZM167.562 29V98H142.562V84.4375H142.062C140.646 89.2292 138.292 92.9167 135 95.5C131.75 98.0833 127.604 99.375 122.562 99.375C114.979 99.375 108.792 97.0417 104 92.375C99.25 87.6667 96.875 81.2917 96.875 73.25V29H122.5V67.5C122.5 71.0833 123.396 73.8542 125.188 75.8125C126.979 77.7292 129.396 78.6875 132.438 78.6875C135.312 78.6875 137.604 77.6667 139.312 75.625C141.062 73.5833 141.938 70.8958 141.938 67.5625V29H167.562ZM244.938 57.5625H221.625C221.375 54.1042 220.354 51.375 218.562 49.375C216.771 47.3333 214.5 46.3125 211.75 46.3125C208.375 46.3125 205.792 47.7708 204 50.6875C202.25 53.6042 201.375 57.8542 201.375 63.4375C201.375 69.0625 202.25 73.3542 204 76.3125C205.75 79.2292 208.333 80.6875 211.75 80.6875C214.625 80.6875 216.938 79.75 218.688 77.875C220.438 75.9583 221.417 73.2917 221.625 69.875H244.938C244.812 79.2083 241.771 86.5208 235.812 91.8125C229.854 97.1042 221.729 99.75 211.438 99.75C200.229 99.75 191.417 96.5417 185 90.125C178.625 83.6667 175.438 74.7708 175.438 63.4375C175.438 52.1875 178.625 43.3542 185 36.9375C191.417 30.4792 200.188 27.25 211.312 27.25C221.396 27.25 229.479 29.9792 235.562 35.4375C241.646 40.8958 244.771 48.2708 244.938 57.5625ZM258.75 13.875H284.375V29H296.5V47.5625H284.375V73.0625C284.375 77.4375 286.958 79.625 292.125 79.625C293.792 79.625 295.25 79.5208 296.5 79.3125V97.0625C293.458 97.6875 289.938 98 285.938 98C276.229 98 269.271 96.5 265.062 93.5C260.854 90.5 258.75 85.5833 258.75 78.75V47.5625H249.625V29H258.75V13.875ZM304.938 98V29H330.562V98H304.938ZM326.812 21.75C324.396 24.0417 321.375 25.1875 317.75 25.1875C314.125 25.1875 311.083 24.0417 308.625 21.75C306.208 19.4167 305 16.5208 305 13.0625C305 9.60417 306.208 6.72917 308.625 4.4375C311.083 2.10417 314.125 0.9375 317.75 0.9375C321.375 0.9375 324.396 2.10417 326.812 4.4375C329.271 6.72917 330.5 9.60417 330.5 13.0625C330.5 16.5208 329.271 19.4167 326.812 21.75ZM374.688 99.75C363.354 99.75 354.479 96.6042 348.062 90.3125C341.646 83.9792 338.438 75.0208 338.438 63.4375C338.438 52.1458 341.688 43.2917 348.188 36.875C354.729 30.4583 363.562 27.25 374.688 27.25C385.896 27.25 394.75 30.4583 401.25 36.875C407.75 43.25 411 52.1042 411 63.4375C411 75.0208 407.792 83.9792 401.375 90.3125C394.958 96.6042 386.062 99.75 374.688 99.75ZM374.688 81.4375C377.896 81.4375 380.417 79.875 382.25 76.75C384.083 73.625 385 69.2083 385 63.5C385 57.9167 384.062 53.5417 382.188 50.375C380.354 47.1667 377.854 45.5625 374.688 45.5625C371.521 45.5625 369.021 47.1667 367.188 50.375C365.354 53.5417 364.438 57.9167 364.438 63.5C364.438 69.25 365.333 73.6875 367.125 76.8125C368.917 79.8958 371.438 81.4375 374.688 81.4375ZM462.938 99.5625C449.021 99.5625 438.083 95.4792 430.125 87.3125C422.167 79.1042 418.188 67.625 418.188 52.875C418.188 38.125 422.167 26.6667 430.125 18.5C438.083 10.3333 449.021 6.25 462.938 6.25C470.812 6.25 477.917 7.83333 484.25 11C490.625 14.1667 495.646 18.6458 499.312 24.4375C502.979 30.2292 504.812 36.7917 504.812 44.125H479.438C479.146 39 477.479 34.875 474.438 31.75C471.396 28.625 467.562 27.0625 462.938 27.0625C457.479 27.0625 453.146 29.3542 449.938 33.9375C446.771 38.5208 445.188 44.8125 445.188 52.8125C445.188 60.9375 446.771 67.2917 449.938 71.875C453.104 76.4583 457.458 78.75 463 78.75C467.583 78.75 471.375 77.2083 474.375 74.125C477.417 71 479.146 66.8333 479.562 61.625H504.938C504.896 69 503.062 75.5833 499.438 81.375C495.854 87.1667 490.875 91.6458 484.5 94.8125C478.167 97.9792 470.979 99.5625 462.938 99.5625ZM513.875 98V7.8125H538.875V42.5625H539.375C541.083 37.7292 543.771 34.0417 547.438 31.5C551.146 28.9167 555.625 27.625 560.875 27.625C568.583 27.625 574.479 29.9167 578.562 34.5C582.688 39.0417 584.75 45.4792 584.75 53.8125V98H559.125V59.5C559.125 56 558.271 53.2708 556.562 51.3125C554.896 49.3125 552.479 48.3125 549.312 48.3125C546.188 48.3125 543.771 49.3333 542.062 51.375C540.354 53.4167 539.5 56.1042 539.5 59.4375V98H513.875ZM624.438 81.875C627.396 81.875 629.958 81.125 632.125 79.625C634.292 78.0833 635.375 76.0833 635.375 73.625V69.125L624.5 69.875C622.083 70.0417 620.208 70.6667 618.875 71.75C617.542 72.8333 616.875 74.2292 616.875 75.9375C616.875 77.7708 617.562 79.2292 618.938 80.3125C620.312 81.3542 622.146 81.875 624.438 81.875ZM614.875 99C608.458 99 602.979 97.0208 598.438 93.0625C593.896 89.0625 591.625 84.0208 591.625 77.9375C591.625 71.3542 594.062 66.2708 598.938 62.6875C603.854 59.0625 610.958 56.9583 620.25 56.375L635.375 55.4375V52.0625C635.375 49.8125 634.604 48.0625 633.062 46.8125C631.521 45.5625 629.521 44.9375 627.062 44.9375C624.521 44.9375 622.438 45.5417 620.812 46.75C619.188 47.9583 618.271 49.4792 618.062 51.3125H595.188C595.521 43.8958 598.646 38.0417 604.562 33.75C610.479 29.4167 618.438 27.25 628.438 27.25C637.979 27.25 645.688 29.4375 651.562 33.8125C657.438 38.1458 660.375 43.8125 660.375 50.8125V98H635.375V88.75H634.875C633.125 92 630.396 94.5208 626.688 96.3125C623.021 98.1042 619.083 99 614.875 99ZM670.062 98V29H695.688V98H670.062ZM691.938 21.75C689.521 24.0417 686.5 25.1875 682.875 25.1875C679.25 25.1875 676.208 24.0417 673.75 21.75C671.333 19.4167 670.125 16.5208 670.125 13.0625C670.125 9.60417 671.333 6.72917 673.75 4.4375C676.208 2.10417 679.25 0.9375 682.875 0.9375C686.5 0.9375 689.521 2.10417 691.938 4.4375C694.396 6.72917 695.625 9.60417 695.625 13.0625C695.625 16.5208 694.396 19.4167 691.938 21.75ZM705.312 98V29H730.312V42.5625H730.812C732.562 37.6875 735.229 33.9792 738.812 31.4375C742.396 28.8958 746.792 27.625 752 27.625C759.708 27.625 765.625 29.9167 769.75 34.5C773.917 39.0417 776 45.4792 776 53.8125V98H750.375V59.5C750.375 55.9583 749.542 53.2083 747.875 51.25C746.25 49.2917 743.854 48.3125 740.688 48.3125C737.688 48.3125 735.312 49.3542 733.562 51.4375C731.812 53.4792 730.938 56.1458 730.938 59.4375V98H705.312Z"
          fill="url(#paint0_linear_314_247)"/>
    <defs>
        <linearGradient id="paint0_linear_314_247" x1="363.933" y1="-24" x2="386.35" y2="231.991"
                        gradientUnits="userSpaceOnUse">
            <stop stop-color="#D72828"/>
            <stop offset="1" stop-color="#1B17F8" stop-opacity="0.52"/>
        </linearGradient>
    </defs>
</svg>
