<svg width="1920" height="1080" viewBox="0 0 1920 1080" fill="none" xmlns="http://www.w3.org/2000/svg">
<g clip-path="url(#clip0_54_249)">
<path d="M1523.23 365.543C1551.8 459.394 1322.97 613.415 1012.11 709.559C701.256 805.703 426.093 807.561 397.518 713.711C368.945 619.859 597.78 465.838 908.636 369.694C1219.49 273.551 1494.66 271.692 1523.23 365.543ZM1459.57 225.386C1511.39 308.548 1329.91 516.653 1054.21 690.203C778.507 863.753 512.997 937.026 461.174 853.866C409.352 770.705 590.84 562.6 866.54 389.049C1142.24 215.5 1407.75 142.225 1459.57 225.386Z" stroke="url(#paint0_linear_54_249)" stroke-opacity="0.5" stroke-width="5" stroke-linecap="round" stroke-linejoin="round"/>
</g>
<defs>
<linearGradient id="paint0_linear_54_249" x1="1108.86" y1="93.8548" x2="811.887" y2="985.398" gradientUnits="userSpaceOnUse">
<stop stop-color="#CE2D39"/>
<stop offset="1" stop-color="#1B17F8" stop-opacity="0.5"/>
</linearGradient>
<clipPath id="clip0_54_249">
<rect width="1920" height="1080" fill="white"/>
</clipPath>
</defs>
</svg>
